<?xml version="1.0" standalone="no"?>
<!DOCTYPE svg PUBLIC "-//W3C//DTD SVG 20010904//EN"
 "http://www.w3.org/TR/2001/REC-SVG-20010904/DTD/svg10.dtd">
<svg version="1.0" xmlns="http://www.w3.org/2000/svg"
 width="600.000000pt" height="600.000000pt" viewBox="0 0 600.000000 600.000000"
 preserveAspectRatio="xMidYMid meet">
<metadata>
Created by potrace 1.11, written by Peter Selinger 2001-2013
</metadata>
<g transform="translate(0.000000,600.000000) scale(0.100000,-0.100000)"
fill="#000000" stroke="none">
<path d="M895 5024 c-75 -19 -132 -52 -193 -114 -128 -130 -154 -326 -66 -499
21 -42 114 -135 156 -157 137 -71 298 -69 425 6 l33 20 53 -32 c236 -144 469
-349 621 -548 183 -238 317 -534 380 -837 24 -115 50 -312 42 -320 -4 -4 -83
52 -96 68 -3 4 -60 43 -128 87 -107 70 -354 201 -462 246 -184 75 -342 126
-538 171 -213 49 -241 55 -284 58 -32 2 -38 7 -53 40 -26 60 -115 143 -188
177 -286 134 -610 -83 -592 -397 7 -114 44 -201 121 -277 164 -165 433 -161
595 8 18 18 19 18 46 1 39 -26 162 -152 217 -224 205 -266 374 -686 470 -1171
32 -157 33 -163 48 -276 l12 -94 1486 2 1485 3 7 48 c3 27 9 70 13 95 3 26 20
115 36 197 100 509 265 923 474 1196 56 72 180 199 218 224 l28 18 36 -37 c42
-42 136 -91 202 -105 127 -28 282 20 377 116 87 89 123 186 119 316 -3 70 -9
97 -35 153 -125 266 -462 329 -669 125 -27 -27 -58 -66 -69 -88 l-20 -39 -124
-23 c-468 -86 -912 -260 -1241 -487 -50 -35 -79 -50 -82 -42 -2 7 -13 47 -25
88 -76 269 -240 603 -412 842 -234 324 -537 592 -895 791 -260 144 -610 277
-903 343 -63 14 -115 26 -116 27 0 1 -8 23 -18 50 -40 107 -143 206 -255 245
-56 20 -170 23 -236 6z"/>
</g>
</svg>
